<?xml version="1.0" encoding="iso-8859-1"?><!DOCTYPE svg PUBLIC "-//W3C//DTD SVG 1.1//EN" "http://www.w3.org/Graphics/SVG/1.1/DTD/svg11.dtd"><svg version="1.1" id="Layer_1" xmlns="http://www.w3.org/2000/svg" xmlns:xlink="http://www.w3.org/1999/xlink" x="0px" y="0px"
	 width="192.756px" height="192.756px" viewBox="0 0 192.756 192.756" style="enable-background:new 0 0 192.756 192.756;"
	 xml:space="preserve"><a xlink:href="http://logo.webnhanh.com/logo/star-wars-2.svg.html" target="_blank"><g><polygon style="fill-rule:evenodd;clip-rule:evenodd;" points="0,0 192.756,0 192.756,192.756 0,192.756 0,0 	"/><path style="fill-rule:evenodd;clip-rule:evenodd;fill:#FFFFFF;" d="M60.698,57.525h-4.374H38.108
		c-4.671,0-7.445,2.268-8.325,6.803c-0.881,4.534,1.624,9.509,7.513,14.924c3.57,2.809,2.962,4.146-1.827,4.011H15.265v10.913h31.98
		c5.279-0.879,7.969-3.587,8.071-8.122c0.102-4.535-2.589-9.205-8.071-14.011c-3.062-2.538-2.419-3.739,1.929-3.604h7.149h4.374
		h7.25v25.736h11.93V68.439h11.625V57.525H60.698L60.698,57.525z"/><path style="fill-rule:evenodd;clip-rule:evenodd;fill:#FFFFFF;" d="M89.235,94.175l12.056-36.65h18.199l12.26,36.65h-13.859
		l-2.309-6.599h-10.889l-2.311,6.599H89.235L89.235,94.175z M110.43,65.647l-5.254,14.519h10.102L110.43,65.647L110.43,65.647z"/><path style="fill-rule:evenodd;clip-rule:evenodd;fill:#FFFFFF;" d="M131.209,94.175v-36.65h23.857
		c2.945,0.271,5.365,1.048,7.26,2.335c1.896,1.286,3.283,3.012,4.164,5.178c0.676,3.249,0.709,5.753,0.1,7.513
		c-0.609,1.76-1.674,3.232-3.197,4.417c-1.523,1.184-3.707,2.115-6.547,2.791l2.738,3.504h17.908v10.913h-21.41l-11.625-12.107
		v12.107H131.209L131.209,94.175z M144.457,66.662v6.751h9.24c0.49,0,1.023-0.181,1.598-0.545c0.576-0.364,0.881-1.281,0.916-2.754
		c-0.086-1.404-0.43-2.331-1.029-2.779c-0.602-0.448-1.105-0.672-1.51-0.672H144.457L144.457,66.662z"/><polygon style="fill-rule:evenodd;clip-rule:evenodd;fill:#FFFFFF;" points="42.22,119.699 38.362,135.232 26.432,135.232 
		15.265,98.58 27.194,98.58 32.219,114.42 36.584,98.58 47.549,98.58 52.652,114.42 56.053,98.58 67.982,98.58 58.794,135.232 
		46.864,135.232 42.22,119.699 	"/><path style="fill-rule:evenodd;clip-rule:evenodd;fill:#FFFFFF;" d="M62.508,135.232L74.564,98.58h18.199l12.26,36.652h-13.86
		l-2.309-6.6H77.966l-2.311,6.6H62.508L62.508,135.232z M83.702,106.703l-5.254,14.518h10.102L83.702,106.703L83.702,106.703z"/><path style="fill-rule:evenodd;clip-rule:evenodd;fill:#FFFFFF;" d="M163.723,109.494l13.689-0.057V98.523l-24.756,0.057
		c-4.672,0-7.445,2.268-8.326,6.803c-0.879,4.535,1.625,9.51,7.514,14.924c3.57,2.811,2.961,4.146-1.828,4.012h-17.158l-2.742-3.504
		c2.844-0.676,5.027-1.607,6.551-2.791c1.521-1.186,2.588-2.656,3.197-4.416c0.607-1.762,0.574-4.266-0.102-7.514
		c-0.879-2.166-2.268-3.891-4.162-5.178c-1.896-1.287-4.314-2.064-7.26-2.336H104.48v36.652h13.25v-12.107l11.625,12.107h0.457
		h22.641h9.34c5.281-0.881,7.969-3.588,8.07-8.123s-2.588-9.205-8.07-14.01C158.732,110.561,159.373,109.359,163.723,109.494
		L163.723,109.494z M128.568,113.924c-0.576,0.363-1.107,0.547-1.6,0.547h-9.238v-6.752h9.213c0.408,0,0.91,0.223,1.51,0.672
		c0.602,0.449,0.945,1.375,1.029,2.779C129.447,112.643,129.145,113.561,128.568,113.924L128.568,113.924z"/></g></a></svg>
